<svg xmlns="http://www.w3.org/2000/svg" width="1000" height="600" fill="none"><g clip-path="url(#a)"><mask id="c" width="438" height="484" x="38" y="57" maskUnits="userSpaceOnUse" style="mask-type:alpha"><path fill="#D9D9D9" d="m340 541 76-39 60-52-76-43-35-8-13 42H231l-13-38-46-7-24-106 20-29v-44l85-47 101-6 48 26 67-40-60-67-150-25-189 78-31 201 116 182 185 22Z"/></mask><g stroke="#000" filter="url(#b)" mask="url(#c)"><path stroke-width="38.4" d="M290 483a183 183 0 1 0 0-366 183 183 0 0 0 0 366Z"/><path fill="#000" stroke-linejoin="round" stroke-width="12.8" d="m480 351 23-9-18-16-5 25Zm-14 36 25-4-15-20-10 24Zm-20 33 25 1-11-23-14 22Zm-26 28 24 6-6-24-18 18Zm-32 22 23 11-1-25-22 14Zm-35 16 20 15 4-25-24 10Zm-37 9 16 18 9-23-25 5Zm-39 1 13 21 13-21h-26Zm-38-6 9 23 16-18-25-5Zm-36-14 4 25 20-15-24-10Zm-33-20-1 25 23-11-22-14Zm-28-26-6 24 24-6-18-18Zm-22-32-11 23 25-1-14-22Zm-16-35-15 20 25 4-10-24Zm-9-37-18 16 23 9-5-25Zm-1-39-21 13 21 13v-26Zm6-38-23 9 18 16 5-25Zm14-36-25 4 15 20 10-24Zm20-33-25-1 11 23 14-22Zm26-28-24-6 6 24 18-18Zm32-22-23-11 1 25 22-14Zm35-16-20-15-4 25 24-10Zm37-9-16-18-9 23 25-5Zm39-1-13-21-13 21h26Zm38 6-9-23-16 18 25 5Zm36 14-4-25-20 15 24 10Zm33 20 1-25-23 11 22 14Zm28 26 6-24-24 6 18 18Zm22 32 11-23-25 1 14 22Zm16 36 15-20-25-4 10 24Zm9 36 18-16-23-9 5 25Z"/><path fill="#000" stroke-linejoin="round" stroke-width="25.6" d="m260 121 30 30 30-30h-60Zm191 95-19 38 38 19-19-57Zm-32 211-41-6-7 41 48-35Zm-210 35-7-41-41 6 48 35Zm-99-189 38-19-19-38-19 57Z"/></g></g><g filter="url(#d)"><path fill="#000" d="M305 307h81v7h-18v71l-35-6a98 98 0 0 1-92-5c-24-16-36-41-36-75 0-26 8-47 23-63 16-16 37-24 63-24 15 0 28 3 41 8l27-5 1 60h-9c-7-36-24-54-51-54h-7c-29 4-44 30-44 80 0 16 1 30 4 42 7 24 22 36 45 36 12 0 22-4 31-10v-55h-24v-7Zm157 71h3c2 0 4 3 4 7h-70v-7l6-1c7-1 10-6 10-14v-92h-16v-8h52v115h11Zm-8-152c0 4-1 7-3 10-4 7-10 11-18 11-4 0-7-1-10-3-8-4-11-10-11-18l2-10c4-7 10-11 19-11 3 0 7 1 10 3 7 4 11 10 11 18Zm24 46v-7h20v-27l36-6v33h37v7h-37v86l1 7c1 10 5 15 12 15l4-1c7-1 13-10 16-25l8 1c-1 8-4 14-6 19-6 9-16 14-30 14h-7c-23-3-34-18-34-45v-71h-20Zm101-49v-8h85v8h-22v97c0 11 0 20 2 28 5 21 16 31 36 31 30 0 45-19 45-59v-97h-22v-8h55v8h-22v96c0 13-2 25-5 34-8 23-27 35-57 35-48 0-72-22-72-65V223h-23Zm271 162h-85v-8h23V223h-23v-8h85v8h-22v154h15c4 1 6 3 7 8Z"/></g><defs><filter id="b" width="455.7" height="455.7" x="62" y="72" color-interpolation-filters="sRGB" filterUnits="userSpaceOnUse"><feFlood flood-opacity="0" result="BackgroundImageFix"/><feColorMatrix in="SourceAlpha" result="hardAlpha" values="0 0 0 0 0 0 0 0 0 0 0 0 0 0 0 0 0 0 127 0"/><feOffset/><feGaussianBlur stdDeviation="2"/><feComposite in2="hardAlpha" operator="out"/><feColorMatrix values="0 0 0 0 1 0 0 0 0 1 0 0 0 0 1 0 0 0 1 0"/><feBlend in2="BackgroundImageFix" result="effect1_dropShadow_1_2"/><feBlend in="SourceGraphic" in2="effect1_dropShadow_1_2" result="shape"/></filter><filter id="d" width="653.4" height="191.2" x="201" y="201" color-interpolation-filters="sRGB" filterUnits="userSpaceOnUse"><feFlood flood-opacity="0" result="BackgroundImageFix"/><feColorMatrix in="SourceAlpha" result="hardAlpha" values="0 0 0 0 0 0 0 0 0 0 0 0 0 0 0 0 0 0 127 0"/><feOffset/><feGaussianBlur stdDeviation="2"/><feComposite in2="hardAlpha" operator="out"/><feColorMatrix values="0 0 0 0 1 0 0 0 0 1 0 0 0 0 1 0 0 0 1 0"/><feBlend in2="BackgroundImageFix" result="effect1_dropShadow_1_2"/><feBlend in="SourceGraphic" in2="effect1_dropShadow_1_2" result="shape"/></filter><clipPath id="a"><path fill="#fff" d="M64 74h452v452H64z"/></clipPath></defs></svg>